HIERARCHY
ROOT Hips
{
  OFFSET 3.13124 94.3669 -3.18751
  CHANNELS  6 Xposition Yposition Zposition Zrotation Xrotation Yrotation
  JOINT LeftUpLeg
  {
    OFFSET 8.64259 1.95398 -2.38835
    CHANNELS 3 Zrotation Xrotation Yrotation
    JOINT LeftLeg
    {
      OFFSET 43.7702 0 0
      CHANNELS 3 Zrotation Xrotation Yrotation
      JOINT LeftFoot
      {
        OFFSET 40.6238 0 0
        CHANNELS 3 Zrotation Xrotation Yrotation
        JOINT LeftToeBase
        {
          OFFSET 12.7242 0 0
          CHANNELS 3 Zrotation Xrotation Yrotation
          End Site
          {
            OFFSET 0 0 0
          }
        }
      }
    }
  }
  JOINT RightUpLeg
  {
    OFFSET -8.2249 1.95398 -2.59336
    CHANNELS 3 Zrotation Xrotation Yrotation
    JOINT RightLeg
    {
      OFFSET 43.5653 0 0
      CHANNELS 3 Zrotation Xrotation Yrotation
      JOINT RightFoot
      {
        OFFSET 40.6238 0 0
        CHANNELS 3 Zrotation Xrotation Yrotation
        JOINT RightToeBase
        {
          OFFSET 12.7242 0 0
          CHANNELS 3 Zrotation Xrotation Yrotation
          End Site
          {
            OFFSET 0 0 0
          }
        }
      }
    }
  }
  JOINT Spine
  {
    OFFSET 0.165834 0.87714 6.61349
    CHANNELS 3 Zrotation Xrotation Yrotation
    JOINT Spine1
    {
      OFFSET 7.38962 1.71661e-005 0
      CHANNELS 3 Zrotation Xrotation Yrotation
      JOINT Spine2
      {
        OFFSET 11.9445 1.14441e-005 0
        CHANNELS 3 Zrotation Xrotation Yrotation
        JOINT Spine3
        {
          OFFSET 14.7254 4.19617e-005 0
          CHANNELS 3 Zrotation Xrotation Yrotation
          JOINT Spine4
          {
            OFFSET 10.9679 0 0
            CHANNELS 3 Zrotation Xrotation Yrotation
            JOINT RightShoulder
            {
              OFFSET 2.46616 -1.6653 3.69651
              CHANNELS 3 Zrotation Xrotation Yrotation
              JOINT RightArm
              {
                OFFSET 13.0012 0 0
                CHANNELS 3 Zrotation Xrotation Yrotation
                JOINT RightForeArm
                {
                  OFFSET 28.7848 1.52588e-005 0
                  CHANNELS 3 Zrotation Xrotation Yrotation
                  JOINT RightHand
                  {
                    OFFSET 26.5688 1.52588e-005 0
                    CHANNELS 3 Zrotation Xrotation Yrotation
                    End Site
                    {
                      OFFSET 0 0 0
                    }
                  }
                }
              }
            }
            JOINT LeftShoulder
            {
              OFFSET 2.38034 -1.29275 -3.75231
              CHANNELS 3 Zrotation Xrotation Yrotation
              JOINT LeftArm
              {
                OFFSET 16.3182 6.10352e-005 0
                CHANNELS 3 Zrotation Xrotation Yrotation
                JOINT LeftForeArm
                {
                  OFFSET 27.0901 0 0
                  CHANNELS 3 Zrotation Xrotation Yrotation
                  JOINT LeftHand
                  {
                    OFFSET 24.5451 1.52588e-005 0
                    CHANNELS 3 Zrotation Xrotation Yrotation
                    End Site
                    {
                      OFFSET 0 0 0
                    }
                  }
                }
              }
            }
            JOINT Neck
            {
              OFFSET 5.0226 -0.0266342 0
              CHANNELS 3 Zrotation Xrotation Yrotation
              JOINT Head
              {
                OFFSET 6.69363 2.86102e-005 0
                CHANNELS 3 Zrotation Xrotation Yrotation
                End Site
                {
                  OFFSET 0 0 0
                }
              }
            }
          }
        }
      }
    }
  }
}
MOTION
Frames:	7
Frame Time:	0.0333333
1.78318 98.2746 -15.0729 14.0851 -89.9973 14.1346 -171.947 2.69051 92.3901 -8.59229 7.96576 0.594851 63.2068 1.72191 0.902941 28.7808 5.43691e-006 7.50049e-006 179.186 1.89176 88.6596 -7.5533 -0.709628 -0.0583736 62.7099 -1.24717 -0.632206 28.7808 1.56902e-005 2.33206e-005 0.00404183 6.34024 -90.0509 14.1935 4.01654e-006 -7.51621e-007 2.52251 -1.2097e-006 -3.71552e-007 -20.0126 3.6669e-006 -1.00984e-006 0 0 -3.22734e-018 100.786 -18.6339 -85.5902 -2.83102 37.7495 -10.6354 -2.31354 0.0567628 -4.65637 -5.37983 -0.319997 -0.0162406 -79.0095 -21.4603 94.2552 17.2026 -39.0745 -4.61935 1.83974 39.0173 -3.94185 -0.490944 -0.0218166 -0.480214 1.75352 0.00433754 -0.000167417 -7.41044 0.00238889 0.00527742 
1.79749 98.2632 -15.0538 -23.4537 -89.9542 -23.4171 -171.962 2.69346 92.3634 -8.56643 7.98704 0.60879 63.2596 1.74047 0.914755 28.7808 5.43691e-006 7.50049e-006 179.172 2.00446 88.631 -7.72578 -0.76942 -0.0583743 62.8303 -1.30084 -0.665175 28.7808 1.56902e-005 2.33206e-005 0.00423965 6.34029 -90.0534 14.1934 -3.70706e-005 2.14081e-005 2.52242 -4.11908e-005 2.3763e-005 -20.0127 -4.23123e-005 -1.00984e-006 -9.18878e-005 -4.58742e-005 1.94126e-018 100.807 -18.6812 -85.5759 -2.85066 37.7544 -10.6433 -2.31353 0.0567619 -4.66728 -5.37983 -0.319997 -0.0162406 -78.987 -21.4921 94.2797 17.266 -39.073 -4.61914 1.7415 38.7528 -3.87418 -0.232882 -0.0218153 -0.778588 1.74622 0.0755183 -0.00665844 -7.40149 0.0402453 0.0904822 
1.83614 98.2984 -15.0076 -58.6812 -89.8841 -58.598 -171.972 2.59474 92.3813 -8.39948 7.89066 0.598152 63.146 1.8341 0.970027 28.7808 5.43691e-006 7.50049e-006 179.157 1.35748 88.6545 -6.39656 -0.809053 -0.0583749 62.1577 -1.23368 -0.61429 28.7808 1.56902e-005 2.33206e-005 0.00696401 6.33929 -90.0819 14.1953 0.000835063 -0.000418961 2.5244 0.00081231 -0.000452368 -20.0108 0.000920584 -0.000281409 0.00188562 0.000918206 -0.000281154 100.769 -18.7104 -85.7164 -2.9059 37.7409 -10.5456 -2.31395 0.0567647 -4.63363 -5.37983 -0.319997 -0.0162406 -78.9648 -21.4095 94.3067 17.2053 -39.0876 -4.61937 1.7767 38.9261 -3.81092 -0.243749 -0.0218139 -1.02064 1.67368 0.166401 -0.0593934 -7.37122 0.0745893 0.182439 
1.86299 98.2683 -15.0052 -33.3393 -89.7006 -33.355 -172.069 2.80043 92.2283 -8.49128 7.73536 0.612023 63.1968 1.83065 0.966451 28.7808 5.43691e-006 7.50049e-006 179.124 2.29653 88.5403 -7.90083 -0.943036 -0.0582503 62.8638 -1.21773 -0.616247 28.7808 1.56902e-005 2.33206e-005 0.0174724 6.3148 -90.0613 14.2443 0.0229887 -0.0130553 2.57334 0.0224023 -0.0140611 -19.9618 0.0258538 -0.00553308 0.050829 0.025846 -0.00554368 100.766 -18.6131 -85.644 -2.89524 37.7517 -10.5704 -2.32152 0.0567627 -4.65817 -5.37983 -0.319997 -0.0162406 -79.0155 -21.5077 94.2401 17.1912 -39.0487 -4.63349 1.70568 38.8943 -3.80047 -0.135738 -0.0225062 -0.86223 1.56396 0.12524 0.049449 -7.3802 0.107406 0.203829 
1.88013 98.2826 -14.9511 -49.1984 -89.7416 -49.1123 -172.018 2.57986 92.3391 -8.26726 7.72143 0.600804 63.2246 1.79114 0.948127 28.7808 5.43691e-006 7.50049e-006 179.141 1.75051 88.6332 -7.00863 -0.917381 -0.0563725 62.4183 -1.20326 -0.599442 28.7808 1.56902e-005 2.33206e-005 0.0210452 6.32508 -90.1082 14.224 0.0203576 -0.0288591 2.55305 0.018844 -0.0297212 -19.9821 0.028163 -0.0214726 0.0305521 0.0281621 -0.021476 100.774 -18.5802 -85.641 -2.81677 37.7593 -10.6252 -2.34824 0.0567614 -4.67435 -5.37983 -0.319997 -0.0162406 -79.0042 -21.5147 94.2563 17.1528 -39.0764 -4.6775 1.76986 38.9732 -3.78077 -0.44684 -0.032859 -0.938568 1.54152 0.148224 0.0508507 -7.4825 0.120617 0.224823 
1.871 98.2822 -14.9351 -46.4956 -89.6942 -46.4423 -172.025 2.66682 92.3124 -8.38898 7.73544 0.602231 63.22 1.7848 0.942109 28.7808 5.43691e-006 7.50049e-006 179.135 1.73215 88.6018 -6.90449 -0.947839 -0.0559109 62.4201 -1.20652 -0.6022 28.7808 1.56902e-005 2.33206e-005 0.0168748 6.32576 -90.091 14.2346 0.019327 -0.0308651 2.56363 0.012696 -0.0314634 -19.9715 0.0307897 -0.0252155 0.0411386 0.0307888 -0.0252155 100.742 -18.5311 -85.7076 -2.79887 37.7521 -10.6169 -2.34456 0.0567615 -4.67298 -5.37983 -0.319997 -0.0162406 -78.9894 -21.5742 94.3058 17.1799 -39.0413 -4.68779 1.69479 38.9803 -3.72981 -0.423134 -0.0326358 -0.977638 1.43522 0.169508 0.126017 -7.45151 0.139657 0.173526 
1.88661 98.292 -14.9088 -47.7585 -89.6248 -47.693 -172.043 2.65345 92.3068 -8.32689 7.66304 0.603936 63.2021 1.7727 0.936126 28.7808 5.43691e-006 7.50049e-006 179.125 1.56845 88.6045 -6.50096 -1.00784 -0.0559228 62.2166 -1.21935 -0.605651 28.7808 1.56902e-005 2.33206e-005 0.0206973 6.3219 -90.1035 14.2431 0.0194182 -0.0315357 2.57218 0.0181735 -0.0323677 -19.963 0.0333075 -0.0241872 0.0496697 0.0333039 -0.0241997 100.724 -18.5222 -85.7554 -2.83593 37.7362 -10.5536 -2.3218 0.0567627 -4.65788 -5.37983 -0.319997 -0.0162406 -78.9913 -21.5935 94.3006 17.195 -39.0627 -4.65153 1.74495 39.153 -3.72131 -0.584394 -0.031769 -0.945539 1.32892 0.154914 0.189952 -7.39169 0.118459 0.101742 
